<mxfile host="app.diagrams.net" agent="Mozilla/5.0 (Windows NT 10.0; Win64; x64) AppleWebKit/537.36 (KHTML, like Gecko) Chrome/127.0.0.0 Safari/537.36" version="24.7.6">
  <diagram name="第 1 页" id="LoVdSpaz20xGBIXguYWv">
    <mxGraphModel dx="792" dy="1097" grid="1" gridSize="10" guides="1" tooltips="1" connect="1" arrows="1" fold="1" page="1" pageScale="1" pageWidth="827" pageHeight="1169" math="0" shadow="0">
      <root>
        <mxCell id="0" />
        <mxCell id="1" parent="0" />
        <mxCell id="MTlcmfKueNscHB39uHmk-1" value="FormDetail" style="html=1;whiteSpace=wrap;align=left;" vertex="1" parent="1">
          <mxGeometry x="190" y="250" width="430" height="350" as="geometry" />
        </mxCell>
        <mxCell id="MTlcmfKueNscHB39uHmk-3" value="FormContainer" style="html=1;whiteSpace=wrap;align=center;" vertex="1" parent="1">
          <mxGeometry x="324" y="270" width="90" height="310" as="geometry" />
        </mxCell>
        <mxCell id="MTlcmfKueNscHB39uHmk-4" value="PageRender" style="html=1;whiteSpace=wrap;align=center;" vertex="1" parent="1">
          <mxGeometry x="510" y="270" width="90" height="310" as="geometry" />
        </mxCell>
        <mxCell id="MTlcmfKueNscHB39uHmk-5" value="实现表单功能" style="text;html=1;align=center;verticalAlign=middle;whiteSpace=wrap;rounded=0;" vertex="1" parent="1">
          <mxGeometry x="190" y="460" width="60" height="30" as="geometry" />
        </mxCell>
        <mxCell id="MTlcmfKueNscHB39uHmk-6" value="表单初始化，渲染表单，外壳" style="text;html=1;align=center;verticalAlign=middle;whiteSpace=wrap;rounded=0;" vertex="1" parent="1">
          <mxGeometry x="330" y="450" width="80" height="30" as="geometry" />
        </mxCell>
        <mxCell id="MTlcmfKueNscHB39uHmk-7" value="" style="endArrow=diamondThin;endFill=1;endSize=24;html=1;rounded=0;exitX=0;exitY=0.5;exitDx=0;exitDy=0;entryX=1;entryY=0.5;entryDx=0;entryDy=0;" edge="1" parent="1" source="MTlcmfKueNscHB39uHmk-4" target="MTlcmfKueNscHB39uHmk-3">
          <mxGeometry width="160" relative="1" as="geometry">
            <mxPoint x="270" y="860" as="sourcePoint" />
            <mxPoint x="430" y="860" as="targetPoint" />
          </mxGeometry>
        </mxCell>
        <mxCell id="MTlcmfKueNscHB39uHmk-8" value="渲染具体页面内容，表单项，解析schema" style="text;html=1;align=center;verticalAlign=middle;whiteSpace=wrap;rounded=0;" vertex="1" parent="1">
          <mxGeometry x="510" y="450" width="90" height="30" as="geometry" />
        </mxCell>
      </root>
    </mxGraphModel>
  </diagram>
</mxfile>
